<svg xmlns="http://www.w3.org/2000/svg" width="32" height="32" viewBox="0 0 32 32">
  <defs>
    <linearGradient id="g" x1="16" y1="2" x2="16" y2="30" gradientUnits="userSpaceOnUse">
      <stop offset="0" stop-color="#6ee7b7"/>
      <stop offset="1" stop-color="#059669"/>
    </linearGradient>
  </defs>
  <path d="M16 2C9 7 5 13 5 19c0 4 2.5 7 6 7.5C11.5 23 13.5 19 16 17c2.5 2 4.5 6 5 9.5 3.5-.5 6-3.5 6-7.5 0-6-5-12-11-17z" fill="url(#g)"/>
  <path d="M16 10c-2 3-3 6-3 9 0 2 .7 3.5 3 4.5 2.3-1 3-2.5 3-4.5 0-3-1-6-3-9z" fill="#a7f3d0" opacity="0.5"/>
</svg>
